<?xml version="1.0" encoding="UTF-8" standalone="no"?>
<svg
   version="1.1"
   viewBox="-10 0 1236 2048"
   id="svg4"
   sodipodi:docname="Kara-Tepe-Lamed-from-Greek-Lamda.svg"
   inkscape:version="1.2.2 (732a01da63, 2022-12-09)"
   xml:space="preserve"
   xmlns:inkscape="http://www.inkscape.org/namespaces/inkscape"
   xmlns:sodipodi="http://sodipodi.sourceforge.net/DTD/sodipodi-0.dtd"
   xmlns="http://www.w3.org/2000/svg"
   xmlns:svg="http://www.w3.org/2000/svg"><defs
     id="defs8" /><sodipodi:namedview
     id="namedview6"
     pagecolor="#ffffff"
     bordercolor="#666666"
     borderopacity="1.0"
     inkscape:showpageshadow="2"
     inkscape:pageopacity="0.0"
     inkscape:pagecheckerboard="0"
     inkscape:deskcolor="#d1d1d1"
     showgrid="false"
     inkscape:zoom="0.25292969"
     inkscape:cx="298.50193"
     inkscape:cy="1045.7452"
     inkscape:window-width="1024"
     inkscape:window-height="707"
     inkscape:window-x="-9"
     inkscape:window-y="-9"
     inkscape:window-maximized="1"
     inkscape:current-layer="svg4" /><path
     style="fill:#000000;stroke-width:4.29899"
     d="m 437.9659,1808.5675 c -59.34689,-17.4364 -136.71481,-66.9392 -190.26009,-121.7354 -36.29844,-37.1462 -82.03757,-100.2523 -76.20156,-105.1347 2.22464,-1.8613 38.7241,-12.4527 81.10996,-23.5363 l 77.06523,-20.1526 18.5334,22.0535 c 27.5761,32.8134 74.06333,69.5409 112.94478,89.232 44.06978,22.319 96.77393,29.2996 137.33342,18.1899 74.88567,-20.5121 138.38377,-85.1864 168.69279,-171.8178 17.62788,-50.3854 33.65818,-169.8863 73.77383,-549.96096 33.15245,-314.10432 34.43588,-329.60212 30.15272,-364.17036 -13.11967,-105.8857 -66.07232,-183.09173 -142.38782,-207.60429 -48.69751,-15.64165 -106.3376,-13.58202 -140.1062,5.00635 -37.41342,20.59472 -64.82041,61.62056 -108.52515,162.45254 l -22.91114,52.85866 -66.38443,-33.87959 c -36.51145,-18.63378 -67.12196,-33.95709 -68.0234,-34.05186 -4.68973,-0.49291 2.11838,-19.07711 23.0184,-62.83345 76.31662,-159.77677 140.62929,-227.6056 238.98817,-252.05443 48.37336,-12.02405 83.9598,-13.39461 134.17226,-5.16758 93.0376,15.24373 170.51803,61.35031 228.27772,135.84213 40.26284,51.92635 71.99211,131.51197 84.13651,211.03725 5.5757,36.51245 5.4118,38.82289 -15.6611,220.731 -25.13619,216.98542 -39.42777,351.08289 -56.68071,531.83209 -11.50333,120.5138 -13.91464,136.9506 -26.55446,181.0104 -7.6461,26.6531 -15.98243,52.3261 -18.52499,57.0507 -2.5425,4.725 -9.63513,19.2963 -15.76139,32.381 -26.86503,57.3788 -81.43796,129.9033 -127.24027,169.0956 -38.55274,32.9889 -124.89834,66.4404 -192.58303,74.6093 -40.11391,4.8413 -102.60619,-0.1811 -140.39345,-11.2831 z"
     id="path295" /></svg>
